<?xml version="1.0" encoding="UTF-8" standalone="no"?>
<svg
   xmlns:dc="http://purl.org/dc/elements/1.1/"
   xmlns:cc="http://creativecommons.org/ns#"
   xmlns:rdf="http://www.w3.org/1999/02/22-rdf-syntax-ns#"
   xmlns:svg="http://www.w3.org/2000/svg"
   xmlns="http://www.w3.org/2000/svg"
   xmlns:sodipodi="http://sodipodi.sourceforge.net/DTD/sodipodi-0.dtd"
   xmlns:inkscape="http://www.inkscape.org/namespaces/inkscape"
   sodipodi:docname="webscrapperLogo.svg"
   inkscape:version="1.0 (4035a4fb49, 2020-05-01)"
   id="svg8"
   version="1.1"
   viewBox="0 0 100 12"
   height="1.2cm"
   width="10cm">
  <defs
     id="defs2">
    <rect
       id="rect914"
       height="10.583333"
       width="32.127975"
       y="29.104168"
       x="170.84525" />
  </defs>
  <sodipodi:namedview
     units="cm"
     inkscape:window-maximized="1"
     inkscape:window-y="5"
     inkscape:window-x="1912"
     inkscape:window-height="1017"
     inkscape:window-width="1920"
     inkscape:guide-bbox="true"
     showguides="true"
     showgrid="false"
     inkscape:document-rotation="0"
     inkscape:current-layer="g970"
     inkscape:document-units="mm"
     inkscape:cy="37.792268"
     inkscape:cx="109.73505"
     inkscape:zoom="1.979899"
     inkscape:pageshadow="2"
     inkscape:pageopacity="0.0"
     borderopacity="1.0"
     bordercolor="#666666"
     pagecolor="#ffffff"
     id="base">
    <sodipodi:guide
       id="guide906"
       orientation="0,-1"
       position="57.074404,210.63245" />
  </sodipodi:namedview>
  <metadata
     id="metadata5">
    <rdf:RDF>
      <cc:Work
         rdf:about="">
        <dc:format>image/svg+xml</dc:format>
        <dc:type
           rdf:resource="http://purl.org/dc/dcmitype/StillImage" />
        <dc:title />
      </cc:Work>
    </rdf:RDF>
  </metadata>
  <g
     id="layer1"
     inkscape:groupmode="layer"
     inkscape:label="Warstwa 1">
    <g
       transform="translate(0,-36.66369)"
       id="g945">
      <g
         transform="matrix(0.46575,0,0,0.46575,1.6963764,8.0690834)"
         id="g970">
        <g
           style="fill:#72be71;fill-opacity:1"
           transform="matrix(0.04830246,0.03220411,-0.0327943,0.04395951,76.829165,55.702273)"
           id="g65">
          <path
             style="fill:#72be71;fill-opacity:1"
             d="M 343,223.5 C 343,180.645 332.552,135.081 313.581,95.202 293.916,53.865 266.935,21.357 235.555,1.191 c -2.47,-1.587 -5.64,-1.587 -8.109,0 -31.38,20.166 -58.361,52.674 -78.025,94.011 C 130.448,135.081 120,180.645 120,223.5 c 0,79.146 35.002,142.378 104,188.033 V 455.5 c 0,4.142 3.358,7.5 7.5,7.5 4.142,0 7.5,-3.358 7.5,-7.5 V 411.533 C 307.997,365.879 343,302.646 343,223.5 Z m -208,0 c 0,-11.674 0.822,-23.563 2.416,-35.478 L 224,274.606 v 50.787 L 135.377,236.769 C 135.136,232.396 135,227.977 135,223.5 Z M 151.344,129.95 224,202.606 v 50.787 l -83.556,-83.556 c 2.686,-13.477 6.342,-26.863 10.9,-39.887 z M 292.825,87.58 c -0.042,0.04 -0.087,0.075 -0.129,0.116 L 239,141.393 V 90.606 l 33.815,-33.815 c 7.224,9.442 13.938,19.757 20.01,30.789 z M 326.705,197.688 239,285.393 v -50.787 l 80.078,-80.078 c 3.644,14.278 6.211,28.775 7.627,43.16 z M 239,306.606 327.926,217.681 c 0.045,1.944 0.074,3.885 0.074,5.819 0,17.661 -1.89,34.522 -5.614,50.508 L 239,357.393 Z m 75.361,-168.558 c -0.054,0.051 -0.112,0.096 -0.165,0.149 L 239,213.393 v -50.787 l 61.011,-61.011 c 0.008,0.017 0.016,0.033 0.024,0.05 5.566,11.701 10.358,23.914 14.326,36.403 z M 263.254,45.139 239,69.393 V 22.047 c 8.453,6.634 16.581,14.389 24.254,23.092 z M 224,22.047 v 87.346 L 182.321,67.714 C 194.651,49.516 208.802,33.975 224,22.047 Z M 174.098,80.704 224,130.606 v 50.787 l -66.791,-66.791 c 1.817,-4.378 3.733,-8.703 5.757,-12.957 3.447,-7.248 7.172,-14.238 11.132,-20.941 z M 162.62,328.711 c -12.371,-20.576 -20.608,-43.4 -24.667,-68.152 L 224,346.606 v 46.733 C 197.81,374.626 177.187,352.94 162.62,328.711 Z M 239,393.339 v -14.733 l 73.241,-73.24 c -3.408,8.068 -7.359,15.857 -11.861,23.345 -14.567,24.229 -35.19,45.916 -61.38,64.628 z"
             id="path10" />
          <g
             style="fill:#72be71;fill-opacity:1"
             id="g12" />
          <g
             style="fill:#72be71;fill-opacity:1"
             id="g14" />
          <g
             style="fill:#72be71;fill-opacity:1"
             id="g16" />
          <g
             style="fill:#72be71;fill-opacity:1"
             id="g18" />
          <g
             style="fill:#72be71;fill-opacity:1"
             id="g20" />
          <g
             style="fill:#72be71;fill-opacity:1"
             id="g22" />
          <g
             style="fill:#72be71;fill-opacity:1"
             id="g24" />
          <g
             style="fill:#72be71;fill-opacity:1"
             id="g26" />
          <g
             style="fill:#72be71;fill-opacity:1"
             id="g28" />
          <g
             style="fill:#72be71;fill-opacity:1"
             id="g30" />
          <g
             style="fill:#72be71;fill-opacity:1"
             id="g32" />
          <g
             style="fill:#72be71;fill-opacity:1"
             id="g34" />
          <g
             style="fill:#72be71;fill-opacity:1"
             id="g36" />
          <g
             style="fill:#72be71;fill-opacity:1"
             id="g38" />
          <g
             style="fill:#72be71;fill-opacity:1"
             id="g40" />
        </g>
        <text
           id="text69"
           y="81.489838"
           x="-0.34199253"
           style="font-size:10.5833px;line-height:1.25;font-family:Saira;-inkscape-font-specification:Saira;fill:#f2e352;fill-opacity:1;stroke-width:0.264583"
           xml:space="preserve"><tspan
             id="tspan71"
             style="font-style:normal;font-variant:normal;font-weight:bold;font-stretch:normal;font-size:24.6944px;font-family:Saira;-inkscape-font-specification:'Saira, Bold';font-variant-ligatures:normal;font-variant-caps:normal;font-variant-numeric:normal;font-variant-east-asian:normal;fill:#f2e352;fill-opacity:1;stroke-width:0.264583"
             y="81.489838"
             x="-0.34199253"
             sodipodi:role="line">Plants</tspan><tspan
             id="tspan75"
             style="fill:#f2e352;fill-opacity:1;stroke-width:0.264583"
             y="100.41854"
             x="-0.34199253"
             sodipodi:role="line" /></text>
        <text
           id="text79"
           y="81.600555"
           x="88.555138"
           style="font-size:10.5833px;line-height:1.25;font-family:Saira;-inkscape-font-specification:Saira;fill:#f2e352;fill-opacity:1;stroke-width:0.264583"
           xml:space="preserve"><tspan
             style="font-size:17.6389px;fill:#f2e352;fill-opacity:1;stroke-width:0.264583"
             y="81.600555"
             x="88.555138"
             id="tspan77"
             sodipodi:role="line">Webscrapper</tspan><tspan
             id="tspan81"
             style="fill:#f2e352;fill-opacity:1;stroke-width:0.264583"
             y="97.679489"
             x="88.555138"
             sodipodi:role="line" /></text>
      </g>
      <text
         xml:space="preserve"
         style="font-size:10.5833px;line-height:1.25;font-family:Saira;-inkscape-font-specification:Saira;stroke-width:0.264583"
         x="135.50447"
         y="44.034225"
         id="text910"><tspan
           sodipodi:role="line"
           id="tspan908"
           x="135.50447"
           y="44.034225"
           style="stroke-width:0.264583"> </tspan></text>
      <text
         xml:space="preserve"
         id="text912"
         style="font-size:10.5833px;line-height:1.25;font-family:Saira;-inkscape-font-specification:Saira;white-space:pre;shape-inside:url(#rect914);"><tspan
           x="170.8457"
           y="38.057969"><tspan>   </tspan></tspan></text>
    </g>
  </g>
</svg>
